<svg width="55" height="55" viewBox="0 0 55 55" fill="none" xmlns="http://www.w3.org/2000/svg">
<path d="M19.2074 41.1205C19.2074 41.3269 19.259 41.4302 19.3623 41.5334C19.4139 41.585 19.4655 41.6366 19.5171 41.6366C19.5687 41.6366 19.6719 41.6883 19.7752 41.6883C19.8784 41.6883 19.93 41.6883 19.9816 41.6883C20.2397 41.6366 20.4978 41.4302 20.8075 41.2753C20.9623 41.1721 21.1688 41.2237 21.272 41.327C21.3236 41.3786 21.4269 41.4818 21.6333 41.6366C21.8398 41.7399 22.0978 41.8431 22.3043 41.8431C22.3559 41.8431 22.4075 41.8431 22.4592 41.8431C22.7172 41.7915 22.9237 41.6366 23.1301 41.4302C23.3366 41.2237 23.4398 41.0173 23.4915 40.914C23.5947 40.8108 23.5947 40.7076 23.6979 40.5527C23.7495 40.4495 23.8528 40.2947 24.0076 40.1398C24.2141 39.8817 24.4721 39.6753 24.9883 39.4172C25.556 39.1591 26.1238 38.9527 26.6916 38.8494C26.6916 38.8494 26.6916 38.8494 26.7432 38.8494C26.64 38.7978 26.5367 38.7462 26.3819 38.6946C25.298 38.2817 24.3689 37.972 23.6463 37.8688C23.4398 37.8171 23.1818 37.8171 22.9237 37.8171C22.1495 37.8171 21.272 38.0236 20.601 38.3333C19.8784 38.643 19.3106 39.1075 18.9493 39.6753C18.9493 39.6753 18.7429 39.985 18.6396 40.243C18.6913 40.1914 18.7945 40.1914 18.8461 40.1398C19.001 40.0882 19.2074 40.0882 19.3106 40.243C19.4139 40.3463 19.4655 40.5527 19.3623 40.7076C19.259 40.7592 19.2074 40.9656 19.2074 41.1205Z" fill="#C33409"/>
<path d="M24.6794 47.108C25.5053 47.2628 26.5376 47.4177 27.7247 47.4177C28.9119 47.4177 29.9442 47.2628 30.77 47.0564C29.7377 46.5402 28.757 45.9724 27.7247 45.4563C26.6924 46.0757 25.6601 46.6434 24.6794 47.108Z" fill="#C33409"/>
<path d="M50.125 26.72C49.9186 25.1715 47.5959 25.8941 48.1637 27.2361C47.5959 27.1329 47.2346 27.4426 47.0798 27.8555C46.9249 28.32 47.1314 28.7845 47.5959 28.991C46.4088 29.0426 44.499 28.991 42.5892 27.9587C39.0278 26.1006 37.6342 22.1262 37.1697 20.5778C37.8923 20.4745 38.6665 20.4229 39.3891 20.3197C39.5956 20.3197 39.7504 20.1132 39.7504 19.9068C39.7504 19.7003 39.544 19.5455 39.3375 19.5455C38.5633 19.6487 37.7891 19.7519 37.0148 19.8036C36.9632 19.5455 36.9116 19.339 36.86 19.0809C37.531 18.9261 38.202 18.8229 38.873 18.7196C39.0794 18.7196 39.2343 18.5132 39.2343 18.3067C39.2343 18.1003 39.0278 17.9454 38.8214 17.9454C38.0988 18.0486 37.4278 18.1519 36.7568 18.3067C36.2922 15.8292 36.1374 13.4033 34.7438 10.7193C33.505 8.24181 32.3179 9.11927 31.1824 11.3387C28.2919 10.6677 25.0402 9.9451 22.253 11.3903C21.0658 9.01604 19.8271 7.82889 18.6399 10.6161C17.3496 13.713 17.2463 16.1389 16.7818 18.6164C16.0076 18.41 15.1817 18.2035 14.4075 17.997C14.201 17.9454 13.9946 18.0486 13.943 18.2551C13.8914 18.4616 13.9946 18.668 14.201 18.7196C15.0269 18.9261 15.8011 19.1326 16.6269 19.339C16.6269 19.3906 16.5753 19.4939 16.5753 19.5455C16.5237 19.6487 16.5237 19.8036 16.4721 19.9584C15.6979 19.8552 14.9237 19.7519 14.1494 19.6487C13.943 19.5971 13.7365 19.7519 13.6849 19.9584C13.6333 20.1649 13.7881 20.3713 13.9946 20.4229C14.7688 20.5262 15.4914 20.6294 16.2656 20.7326C15.7495 22.7972 14.7688 25.5844 12.3945 27.2361C10.6912 28.4232 8.8331 28.6813 7.64595 28.7329C8.52341 28.0619 7.59434 26.7716 6.66527 27.4426C7.18142 26.049 5.16844 25.2231 4.49744 26.5135C4.39421 26.4103 4.13614 26.1522 3.87806 26.1522C3.36192 26.2038 3.10384 26.9264 3.05223 27.1329V27.1845C2.79415 28.0103 3.56838 29.1459 3.72322 29.4039C3.92968 29.662 4.23937 30.0749 4.75552 30.4878C5.99428 31.4685 7.43949 31.5201 8.8331 31.6234C9.91701 31.675 11.4655 31.6234 13.3236 31.1072C9.71055 34.8235 8.98794 40.0882 11.259 43.7013C12.6526 45.9207 15.2333 47.624 18.1238 47.9337C18.898 48.0369 19.569 47.9853 20.1884 47.9337C20.24 47.8821 20.24 47.8821 20.2916 47.8821C20.9626 47.6756 24.7821 46.3336 27.6209 44.3206C28.4984 43.7013 29.2726 43.1335 30.2017 42.2044C30.5114 41.8947 30.6662 41.6883 30.9243 41.4302C31.1307 41.1721 31.3888 40.9141 31.8017 40.5527C32.4211 39.985 32.8856 39.6237 33.247 39.3656C33.6083 39.1075 33.9179 38.9527 34.0728 38.9011C34.6922 38.5914 35.2599 38.4882 35.6212 38.3849C35.6212 38.3849 35.6729 38.3849 35.6729 38.3333C35.7245 38.3333 35.7245 38.2817 35.7761 38.2817L35.7245 38.2301C35.6212 38.1785 35.4664 38.1269 35.4148 38.0752C35.2599 38.0236 35.1051 37.972 35.0019 37.972C34.7954 37.972 34.5373 38.0236 34.4341 38.0752C34.3309 38.1269 34.176 38.0752 34.0728 38.0236C33.9179 37.9204 33.7631 37.7655 33.505 37.6623C33.505 37.6623 33.4534 37.6623 33.4018 37.6107C33.2986 37.5591 33.1953 37.5591 33.0405 37.5075C32.7308 37.4042 32.3179 37.3526 31.8533 37.3526C31.3888 37.3526 30.7694 37.4559 30.0984 37.7655C29.4274 38.0236 28.7565 38.4365 28.0338 39.0559C27.9822 39.0559 27.9822 39.1075 27.9306 39.1075C27.9306 39.1075 27.9306 39.1075 27.879 39.1075C27.879 39.1075 27.879 39.1075 27.8274 39.1075C27.6725 39.1591 27.2596 39.2108 26.7435 39.314C26.2273 39.4172 25.7112 39.6237 25.2466 39.8301C24.8337 40.0366 24.6789 40.1914 24.524 40.3463C24.4208 40.4495 24.3692 40.5527 24.3176 40.6044C24.266 40.7076 24.2143 40.8108 24.1111 41.0173C24.0595 41.1205 23.9047 41.3786 23.6466 41.6367C23.3885 41.8947 23.0272 42.1528 22.5627 42.256C22.4594 42.256 22.3562 42.3077 22.253 42.3077C21.7884 42.3077 21.4271 42.1528 21.1691 41.9464C21.0658 41.8947 20.9626 41.7915 20.911 41.7399C20.7045 41.8947 20.4465 41.998 20.1368 42.1012C20.0335 42.1528 19.9303 42.1528 19.7238 42.1528C19.569 42.1528 19.4142 42.1528 19.2593 42.1012C19.1045 42.0496 18.898 41.9464 18.7432 41.7915C18.4851 41.5334 18.3819 41.1721 18.3819 40.8624C18.3819 40.8108 18.3819 40.7592 18.3819 40.7076C18.3819 40.7076 18.3819 40.7076 18.3302 40.7076C18.2786 40.7076 18.1754 40.7076 18.1238 40.656C18.0722 40.656 17.9689 40.6044 17.9173 40.5011C17.8657 40.4495 17.8141 40.3463 17.7625 40.2947C17.7625 40.1914 17.7109 40.1398 17.7109 40.0882C17.7109 39.9334 17.7625 39.7785 17.8141 39.6753C17.8657 39.5205 17.9173 39.4172 17.9689 39.314C18.0722 39.1075 18.1754 38.9011 18.227 38.9011C18.6399 38.2301 19.3109 37.7139 20.0851 37.301C19.8787 37.1978 19.6206 37.0945 19.3625 36.9913C19.1561 36.9397 19.0529 36.7332 19.1045 36.5268C19.1561 36.3203 19.3625 36.2171 19.569 36.2687C20.1884 36.4752 20.6529 36.7332 20.9626 36.9397C21.582 36.7849 22.2014 36.6816 22.8207 36.6816C23.0788 36.6816 23.3885 36.6816 23.6466 36.7332C24.524 36.8365 25.4531 37.1978 26.537 37.6107C26.9499 37.7655 27.2596 37.9204 27.3629 37.972C27.5177 38.0236 27.6209 38.1268 27.7242 38.1785C28.3951 37.6623 29.1178 37.2494 29.7371 36.9397C30.4597 36.63 31.1824 36.4752 31.8017 36.4752C32.9373 36.4752 33.7631 36.8881 33.8147 36.8881C34.0212 36.9913 34.2276 37.0945 34.3825 37.1978C34.5373 37.1462 34.7438 37.0946 35.0019 37.0946C35.2083 37.0946 35.4664 37.1462 35.7245 37.1978C35.7761 37.1978 35.8793 37.2494 36.0342 37.3526C36.189 37.4042 36.3438 37.5075 36.4471 37.6623C36.4987 37.7139 36.4987 37.7655 36.5503 37.8172C36.9632 37.7139 37.3245 37.6623 37.7374 37.6623C37.9955 37.6623 38.2536 37.6623 38.5117 37.7139C38.7181 37.7655 38.873 37.972 38.8214 38.1785C38.7697 38.3849 38.5633 38.5398 38.3568 38.4882C38.1504 38.4365 37.9439 38.4365 37.6858 38.4365C37.1181 38.4365 36.5503 38.5914 36.0858 38.7978C36.0342 38.7978 36.0342 38.8495 35.9825 38.8495C35.9309 38.9011 35.8277 38.9011 35.7761 38.9527C35.6729 39.0043 35.5696 39.0043 35.4664 39.0043C35.1567 39.0559 34.7954 39.2108 34.3309 39.4172C34.176 39.4688 33.9696 39.6237 33.6083 39.8301C33.247 40.0366 32.834 40.3979 32.2147 40.9657C31.8533 41.327 31.5953 41.585 31.3888 41.7915C31.1824 42.0496 30.9759 42.256 30.6662 42.5657C29.7888 43.4432 29.0145 44.0109 28.2403 44.5787C29.5307 45.2497 30.8211 45.9723 32.163 46.6433C32.2147 46.6949 32.2663 46.7465 32.3179 46.7982C33.6083 47.4175 36.2922 48.295 39.0278 47.1078C41.0924 46.2304 42.1247 44.6303 42.4344 44.1142C44.5506 40.7076 43.7764 35.5977 40.6795 31.0556C43.4151 32.2944 47.3894 32.7073 50.0734 31.1072C51.8283 30.4878 53.3768 25.4812 50.125 26.72ZM23.0788 15.5711C22.5627 16.1905 21.7884 16.5518 20.9626 16.5518C20.6529 16.5518 20.2916 16.5002 19.9819 16.3454C19.7755 16.2421 19.6722 16.0357 19.7755 15.8292C19.8787 15.6227 20.0851 15.5195 20.2916 15.6227C20.4981 15.726 20.7561 15.7776 20.9626 15.7776C21.5304 15.7776 22.0981 15.5195 22.4594 15.1066C22.6143 14.9518 22.8207 14.9001 23.0272 15.055C23.182 15.1582 23.2337 15.3647 23.0788 15.5711ZM29.3242 19.9068C29.2726 19.9584 29.1694 20.1132 28.9113 20.3197C28.6532 20.4745 28.2919 20.681 27.8274 20.681C27.7758 20.681 27.7758 20.681 27.7242 20.681C27.3112 20.681 26.9499 20.4745 26.7435 20.3197C26.6402 20.2681 26.5886 20.1649 26.537 20.1132C26.4338 20.2165 26.2789 20.3197 26.0725 20.4229C25.9176 20.5262 25.6079 20.681 25.195 20.681C25.1434 20.681 25.1434 20.681 25.0918 20.681C24.5756 20.6294 24.2143 20.3713 24.0595 20.2165C23.9047 20.0616 23.9047 19.8036 24.0079 19.6487C24.1111 19.4939 24.4208 19.4939 24.5756 19.5971C24.6273 19.6487 24.8337 19.8036 25.1434 19.8552H25.195C25.4015 19.8552 25.5563 19.8036 25.7112 19.7003C25.9176 19.5971 26.0725 19.4422 26.1757 19.2874C26.1241 18.3067 26.0209 17.3777 25.9692 16.397C25.9692 16.397 25.9692 16.397 25.9692 16.3454C25.866 16.3454 25.7112 16.3454 25.6079 16.2937C25.4015 16.2421 25.2466 16.0357 25.2983 15.8292C25.3499 15.6227 25.5563 15.4679 25.7628 15.5195C25.866 15.5195 25.9692 15.5711 26.0725 15.5711C26.2789 15.5711 26.4854 15.5195 26.6919 15.4679C26.8983 15.3647 27.1048 15.4679 27.208 15.6744C27.3112 15.8808 27.208 16.0873 27.0015 16.1905C26.8983 16.2421 26.7951 16.2421 26.6919 16.2937V16.3454C26.7435 17.326 26.8467 18.2551 26.8983 19.2358C26.8983 19.2874 26.8983 19.339 26.8983 19.3906C26.8983 19.3906 26.8983 19.3906 26.8983 19.4422C26.8983 19.4939 27.0015 19.5455 27.1564 19.6487C27.3112 19.7519 27.5177 19.8552 27.7242 19.8552H27.7758C28.0338 19.8552 28.2403 19.7519 28.3951 19.6487C28.55 19.5455 28.6532 19.4422 28.6532 19.3906C28.8081 19.2358 29.0145 19.1842 29.221 19.339C29.4274 19.4939 29.4274 19.7519 29.3242 19.9068ZM32.8856 16.0873C32.5243 16.397 32.0598 16.5002 31.6469 16.5002C31.4404 16.5002 31.234 16.5002 31.0275 16.4486C30.4081 16.3454 29.7888 16.0873 29.2726 15.6744C29.1178 15.5711 29.0661 15.3131 29.1694 15.1066C29.2726 14.9518 29.5307 14.9001 29.7371 15.0034C30.1501 15.3131 30.6662 15.5195 31.1824 15.6227C31.3372 15.6744 31.492 15.6744 31.6469 15.6744C31.9566 15.6744 32.2147 15.6227 32.4211 15.4679C32.576 15.3131 32.834 15.3647 32.9889 15.5195C33.0405 15.6744 33.0405 15.9324 32.8856 16.0873Z" fill="#C33409"/>
</svg>
