<svg width="55" height="55" viewBox="0 0 55 55" fill="none" xmlns="http://www.w3.org/2000/svg">
<path d="M53.4598 34.0439C52.6596 31.8644 51.5907 29.7824 50.2851 27.8598C49.1498 26.1884 48.1288 24.9651 47.6339 24.3935C45.4106 21.8249 42.7355 19.5113 40.4512 17.727C39.0535 16.2089 37.5006 15.3784 37.0492 15.15C36.9422 15.096 36.8352 15.0484 36.7283 14.9988C36.6391 14.9375 36.5459 14.873 36.4643 14.8177L36.4505 14.8712C30.8353 12.4451 25.2378 15.6387 24.9407 15.8148C24.6798 15.9695 24.4329 16.1329 24.1922 16.3004C24.0857 15.961 23.9498 15.6027 23.7718 15.2332C22.4971 12.5889 20.1199 11.449 19.346 11.0779C16.282 9.60851 11.9325 9.4548 8.67204 11.7952C6.2085 13.5635 5.26199 16.1131 4.98299 16.8952C4.38021 18.5858 4.29808 20.1877 4.26745 20.8782C4.16139 23.2567 4.49333 23.7475 4.36879 25.8876C4.29772 27.1071 4.09141 28.4505 3.14799 29.2317C2.37752 29.8697 1.11212 30.1858 1.00588 31.1774C0.949323 31.7046 1.30772 32.2159 1.7798 32.462C2.25206 32.7077 2.81297 32.7279 3.3407 32.654C5.32454 32.3758 7.03464 30.7227 7.37202 28.7576C7.51632 27.9168 7.43075 27.0564 7.36277 26.2062C7.26615 24.9996 6.96938 21.1521 8.44997 18.0025C8.9728 16.8902 9.90626 14.9043 12.081 13.9865C14.2367 13.0768 17.078 13.4419 19.014 15.2597C20.4892 16.6448 20.9074 18.373 21.0075 19.5388C18.6565 23.0121 18.3523 26.99 18.2604 28.1976C18.202 28.9647 17.8472 34.7927 21.5653 39.7532C19.0978 40.5038 16.4889 40.7964 13.9169 40.5867C13.5919 40.56 13.2616 40.5243 12.9622 40.3955C11.7773 39.886 11.2705 38.0486 9.9824 38.1294C9.01849 38.19 8.53191 39.3859 8.68039 40.3356C8.80802 41.1504 9.23803 41.915 9.86946 42.4494C10.5899 43.0585 11.523 43.3508 12.4389 43.5843C17.7316 44.9349 23.2752 44.8173 28.7382 44.6867C30.6769 45.1164 32.608 45.0147 34.7109 44.9017C34.9426 44.8894 35.1631 44.8772 35.3784 44.8646C38.0445 45.0612 40.7388 44.8747 43.3508 44.3067C43.6078 44.2508 43.878 44.184 44.0672 44.0018C44.4498 43.6323 44.3029 42.9517 43.9168 42.5862C43.531 42.2203 42.99 42.0792 42.4817 41.9197C42.1532 41.8165 41.8309 41.6967 41.5114 41.5679C41.882 40.6059 41.8929 39.7857 41.8925 39.6662C41.8871 38.0948 41.0444 37.0555 39.8882 35.5941C39.6589 35.3043 39.4543 35.0505 39.253 34.8284C39.5891 34.4312 39.9256 34.0336 40.2617 33.6364C40.3938 33.4803 40.3737 33.2472 40.2169 33.1158C40.06 32.9843 39.8258 33.0043 39.6937 33.1604C39.3665 33.5471 39.039 33.9341 38.7117 34.3209C38.5762 34.22 38.4324 34.1381 38.2797 34.0697C38.4311 33.4581 38.6289 32.858 38.8755 32.2784C38.9554 32.0905 38.8672 31.8737 38.6784 31.7941C38.4895 31.7145 38.2716 31.8024 38.1917 31.9903C37.9313 32.6023 37.7223 33.2355 37.562 33.8807C36.5617 33.7782 35.5588 34.2204 35.4625 34.2644C34.7207 34.6022 34.4814 34.9778 33.9111 34.9388C33.257 34.8937 32.8125 34.3463 32.7428 34.2619C31.893 33.2324 32.1188 31.1096 33.2077 30.2753C34.1779 29.5319 35.0739 30.3929 37.3831 30.1089C37.7102 30.0689 38.3889 29.9848 39.1576 29.7445C40.5629 30.1042 41.8707 30.4839 43.1978 30.989C44.6597 31.5455 46.1433 32.1138 47.391 33.0545C48.0944 33.5846 48.7285 34.2543 49.015 35.0846C49.3496 36.0556 49.189 37.1782 49.6988 38.0706C50.3601 39.2278 52.1665 39.51 53.1523 38.61C53.7528 38.0619 54.0105 37.2154 53.9997 36.4046C53.9891 35.5934 53.7397 34.8057 53.4598 34.0439ZM37.6578 37.8299C37.8771 37.5049 38.1983 37.237 38.5997 37.1117C38.7954 37.0508 39.0036 37.1593 39.0648 37.354C39.126 37.5488 39.017 37.7561 38.8213 37.817C38.6047 37.8841 38.4131 38.0363 38.2741 38.242C38.1352 38.4467 38.0555 38.7007 38.0562 38.9393C38.0563 39.0997 38.0905 39.2519 38.1602 39.3872C38.2537 39.5688 38.1817 39.7915 37.9992 39.8846C37.8167 39.9777 37.593 39.906 37.4994 39.7244C37.371 39.4751 37.3136 39.2046 37.3136 38.9393C37.3143 38.5431 37.4384 38.1559 37.6578 37.8299ZM35.6369 40.1058C35.7847 40.1482 35.8699 40.3018 35.8272 40.4489C35.6045 41.2169 35.337 41.9725 35.0265 42.7102C34.967 42.8514 34.8039 42.9179 34.662 42.8587C34.5202 42.7996 34.4534 42.6372 34.5128 42.4961C34.815 41.7781 35.0754 41.0427 35.2922 40.2952C35.3348 40.1481 35.4891 40.0633 35.6369 40.1058ZM32.5554 41.4246C33.1402 40.7321 33.7247 40.0397 34.3096 39.3472C34.4085 39.23 34.5842 39.2149 34.7019 39.3134C34.8196 39.4118 34.8348 39.5866 34.7359 39.7038C34.1511 40.3962 33.5666 41.0887 32.9817 41.7812C32.8828 41.8983 32.7071 41.9135 32.5894 41.815C32.4717 41.7165 32.4565 41.5417 32.5554 41.4246Z" fill="#C33409"/>
</svg>
