<svg width="55" height="55" viewBox="0 0 55 55" fill="none" xmlns="http://www.w3.org/2000/svg">
<path d="M52.8907 15.1714C52.8534 14.8266 52.7791 14.4371 52.4935 14.2578C52.114 14.02 51.6388 14.3031 51.2825 14.5773C51.1854 14.6519 51.0883 14.7266 50.9913 14.8012C50.8389 14.5362 50.6317 14.2239 50.3478 13.7974C50.0718 13.3824 49.9228 13.229 49.724 13.195C49.2876 13.1204 48.9817 13.6178 48.8028 14.0385C48.3925 15.0037 47.9979 15.8117 47.7156 16.4672C46.9222 16.2101 46.142 16.1127 45.4806 16.0319C45.0682 15.9814 41.6638 15.6084 39.4986 17.2035C39.4956 17.1997 39.4947 17.1949 39.4915 17.1913C39.0412 16.6844 38.5906 16.1774 38.1404 15.6705C38.0064 15.5196 37.7801 15.5102 37.635 15.6497C37.4899 15.7891 37.4809 16.0244 37.615 16.1754C38.0608 16.6773 38.5069 17.1793 38.9526 17.681C38.8858 17.7497 38.8211 17.8212 38.7585 17.8953C38.5314 17.7878 38.2997 17.681 38.0585 17.576L38.0584 17.5759C37.5684 17.3628 37.094 17.1753 36.6394 17.0102C36.453 16.9425 36.249 17.0448 36.1839 17.2388C36.1188 17.4328 36.2171 17.6449 36.4036 17.7127C36.8453 17.8731 37.3063 18.0552 37.7823 18.2623H37.7822C37.9623 18.3407 38.1379 18.4201 38.3099 18.4999C38.0837 18.8563 37.8365 19.3505 37.7219 19.971C37.5199 21.0662 37.9527 21.347 37.7998 22.17C37.7687 22.3376 37.7188 22.496 37.6524 22.647C37.6851 22.7082 37.7072 22.776 37.702 22.8511C37.6876 23.056 37.5163 23.21 37.3193 23.1951C37.3175 23.1949 37.3158 23.1948 37.314 23.1947C37.2582 23.2646 37.1988 23.3332 37.1352 23.4003L37.213 23.187C32.4818 22.8283 28.953 22.5561 26.994 22.3033C26.9048 22.2917 26.7252 22.275 26.4847 22.2751C26.0349 22.2749 25.37 22.3332 24.6502 22.5809C24.2887 22.705 23.9401 22.8969 23.6548 23.1426C23.3688 23.3887 23.1471 23.6857 23.0203 24.0252V24.0253C22.9527 24.2061 22.918 24.4073 22.9181 24.6095C22.9179 24.8721 22.9768 25.1349 23.0856 25.3544C23.1948 25.5745 23.3497 25.7496 23.5463 25.8613C23.7482 25.975 23.9514 26.0199 24.1816 26.0206C24.5395 26.0222 24.9586 25.8981 25.4073 25.7394C25.8567 25.5825 26.3334 25.3941 26.8365 25.3067C27.0208 25.2749 27.2008 25.2597 27.3784 25.2597C27.8468 25.2598 28.2913 25.3645 28.7765 25.5245C29.2626 25.685 29.7952 25.9018 30.4614 26.1471C31.6812 26.5966 33.3951 27.3599 35.2968 28.6804C35.4611 28.7945 35.5053 29.0255 35.3957 29.1964C35.286 29.3673 35.0639 29.4133 34.8996 29.2993C33.0569 28.0198 31.4006 27.2826 30.2226 26.8484C29.5451 26.5987 29.012 26.3825 28.5603 26.2337C28.4166 26.1863 28.2837 26.1485 28.1548 26.1153C28.2862 26.3037 28.4142 26.5107 28.5308 26.7432C28.9646 27.6083 29.0937 28.4799 29.0935 29.2125C29.0934 30.0098 28.9418 30.6496 28.8567 30.964C28.803 31.1617 28.6054 31.2767 28.4153 31.2209C28.2252 31.165 28.1146 30.9595 28.1683 30.7618C28.2439 30.4836 28.3783 29.9122 28.3782 29.2125C28.3781 28.569 28.2655 27.8228 27.8966 27.0873C27.6801 26.6555 27.4189 26.3148 27.1726 26.0519C27.1647 26.0434 27.1618 26.0323 27.1548 26.0232C27.0878 26.0293 27.0229 26.0287 26.9533 26.0407C26.5463 26.1099 26.0992 26.281 25.636 26.4444C25.172 26.6059 24.6896 26.763 24.1816 26.7646C23.8574 26.7653 23.5208 26.6949 23.2039 26.5145C22.8667 26.3233 22.6142 26.0283 22.4495 25.6946C22.2845 25.3601 22.2031 24.9852 22.2028 24.6095C22.2029 24.3201 22.2515 24.0293 22.3536 23.7559V23.7558C22.3536 23.7558 22.3536 23.7558 22.3536 23.7559C22.5318 23.2786 22.8356 22.8816 23.199 22.5692C23.2249 22.5469 23.2533 22.5282 23.2798 22.5067C21.6802 21.7473 20.0171 21.1017 18.4585 20.2531C18.1388 20.079 17.4703 19.641 16.6667 18.9927C15.5322 18.0775 14.9651 17.6197 14.5495 16.916C14.1885 16.3045 13.9598 15.0734 13.5172 12.6358C13.4117 12.0544 13.3648 11.496 12.9611 10.9485C12.8549 10.8046 12.1902 9.9036 11.2605 10.0085C10.4592 10.0987 10.0083 10.8749 9.97322 10.9376C9.49984 11.7809 10.0179 12.4887 10.1589 14.1513C10.3476 16.3768 9.88271 16.5701 10.2081 18.48C10.3593 19.3676 10.5414 20.3761 11.2225 21.4008C11.6327 22.0183 11.8387 22.1491 12.375 22.8475C12.9183 23.555 13.2311 24.4199 13.5197 25.2743C14.1823 27.2359 14.7631 29.2273 15.2596 31.2413C15.4925 32.1861 15.7102 33.1421 16.0385 34.0529C16.5479 37.7467 19.0393 40.2675 20.1406 41.2819C16.7587 41.2671 12.6677 41.0833 10.1267 40.3896C8.56286 39.9631 7.63815 39.2776 6.8573 38.5702C5.91996 37.7205 5.22536 36.5074 5.21949 35.2141C5.21789 34.8627 5.26537 34.5016 5.16561 34.1661C4.88055 33.2057 3.48352 33.0537 2.76811 33.7292C2.0527 34.4047 1.9172 35.5301 2.04043 36.527C2.44426 39.7903 5.09214 42.3692 8.04482 43.5497C10.9973 44.7302 14.2402 44.7727 17.4033 44.8001C20.9707 44.8308 24.5381 44.8619 28.1056 44.8929C29.9344 45.1023 31.383 44.9507 31.9645 44.8892C37.8019 44.2737 41.5445 40.5439 43.4864 38.6091C45.381 36.7213 46.4266 34.9955 48.5179 31.5439C51.1548 27.1918 51.6936 25.0326 51.7928 23.7598L51.8202 23.7942C52.8353 21.065 53.2062 18.0793 52.8907 15.1714ZM43.7925 25.7883C43.6569 25.8571 43.4934 25.7985 43.4273 25.6574C43.0591 24.8721 42.691 24.0866 42.3229 23.3011C42.2568 23.16 42.3132 22.9899 42.4488 22.9212C42.5844 22.8524 42.7479 22.9111 42.814 23.0521C43.1821 23.8376 43.5502 24.623 43.9183 25.4084C43.9844 25.5495 43.9281 25.7195 43.7925 25.7883ZM45.1108 24.3393C45.0163 24.4615 44.8443 24.4809 44.7268 24.3826C44.0885 23.8484 43.5159 23.23 43.0269 22.5466C42.9368 22.4207 42.9619 22.2427 43.0829 22.1491C43.2039 22.0554 43.375 22.0814 43.4651 22.2073C43.9264 22.852 44.467 23.4359 45.0692 23.9398C45.1868 24.0382 45.2054 24.217 45.1108 24.3393ZM45.3766 20.665C45.104 20.7838 44.8126 20.841 44.5222 20.8411C44.1136 20.8408 43.7051 20.7281 43.3506 20.5017C42.7462 20.1121 42.3496 19.4319 42.2967 18.6946C42.2827 18.4896 42.431 18.3116 42.628 18.297C42.8251 18.2824 42.9962 18.4367 43.0102 18.6416C43.0413 19.1291 43.3239 19.6139 43.7253 19.868C43.9589 20.0177 44.2409 20.0973 44.5222 20.097C44.722 20.0971 44.9204 20.0573 45.1002 19.9788C45.2824 19.8994 45.4919 19.9887 45.5683 20.1782C45.6446 20.3677 45.5588 20.5856 45.3766 20.665Z" fill="#C33409"/>
</svg>
