<svg width="55" height="55" viewBox="0 0 55 55" fill="none" xmlns="http://www.w3.org/2000/svg">
<path d="M41.7855 3.49284C39.5595 1.79795 36.2511 1.46195 33.8571 2.92177C32.7644 3.58808 31.8309 4.83946 32.2216 6.03898C32.3709 6.49718 32.7666 6.92117 33.2584 6.93292C33.6612 6.94243 34.0109 6.68576 34.3458 6.46711C35.5683 5.66875 37.2815 5.57282 38.354 5.86147C38.4622 5.89068 40.4209 6.45087 41.0641 8.2301C41.5235 9.50032 41.0468 10.657 40.7399 11.4011C40.3028 12.4608 39.6734 13.1189 38.8749 13.9377C37.5128 15.3344 36.907 15.4375 36.0364 16.316C35.5579 16.7989 35.0339 17.4826 34.6123 18.4678C34.2301 18.1914 33.8285 17.9247 33.3995 17.6868C32.2142 16.2156 30.3493 15.07 27.9807 14.4678C26.2203 14.0201 24.3594 13.8278 22.7556 12.9886C20.8418 11.9875 19.4806 10.1575 17.5433 9.20079C16.6386 8.75399 15.5793 8.47277 14.9674 7.68289C14.0413 6.48751 14.392 4.43449 13.0451 3.71702C12.1001 3.21388 10.8449 3.8247 10.3539 4.76082C9.86277 5.69693 9.95718 6.82144 10.1911 7.8483C10.7756 10.4126 12.1742 12.7938 14.1449 14.5803C14.8158 15.1886 15.5625 15.7425 16.0517 16.4985C16.7045 17.5074 16.8201 18.7465 17.0429 19.9203C17.5433 22.5547 18.7289 25.2438 20.4636 27.4128C19.88 30.2089 20.4044 33.5634 20.6128 36.3417C20.9014 40.185 21.4392 44.0107 22.2225 47.7876C22.4698 48.9802 22.7536 50.1971 23.4285 51.2196C24.1035 52.2425 25.2545 53.0479 26.4984 52.9978C27.7424 52.9477 28.9284 51.8059 28.7117 50.6074C28.59 49.9357 28.0974 49.3978 27.7245 48.8209C27.1997 48.0089 26.9189 47.1047 26.8196 46.1657C26.6077 45.1959 26.518 44.321 26.518 43.5525C26.5179 42.5473 26.6587 41.7146 26.8291 41.0557C27.0287 40.2832 27.286 39.6889 27.6477 38.9092C28.01 38.128 28.482 37.1488 29.1355 35.5674C29.6468 34.3309 30.0285 33.3062 30.2692 32.6407C30.3358 32.4564 30.5427 32.3598 30.7312 32.4249C30.9198 32.4901 31.0186 32.6923 30.952 32.8766C30.7089 33.5489 30.3233 34.5838 29.807 35.8326C29.1474 37.4289 28.6662 38.4276 28.3073 39.2015C27.9479 39.9769 27.7162 40.5151 27.5312 41.2293C27.4749 41.447 27.4251 41.6925 27.3804 41.9512C27.5838 41.8829 27.7972 41.849 28.0088 41.8489C28.5534 41.8497 29.1082 42.0627 29.4724 42.5053C29.5972 42.6581 29.5716 42.8808 29.4153 43.0028C29.259 43.1247 29.0312 43.0997 28.9064 42.9469C28.7085 42.7012 28.3614 42.556 28.0088 42.5569C27.7291 42.5567 27.4613 42.6467 27.2718 42.8135C27.254 43.048 27.2423 43.2923 27.2422 43.5525C27.2423 44.246 27.3185 45.0358 27.5042 45.9176L27.5373 45.7775C27.9446 46.1276 28.4236 46.436 28.9917 46.6662C29.8379 47.0088 30.6749 47.1032 31.4405 47.0696C31.8578 47.9041 32.3705 48.7497 33.2305 49.1206C33.5703 49.2672 33.9787 49.3232 34.3062 49.152C34.3723 49.1174 34.4313 49.0731 34.4874 49.0251C33.019 45.3483 32.6525 41.0504 32.5372 38.9998C32.5264 38.8045 32.6795 38.6377 32.8792 38.6272C33.0789 38.6166 33.2496 38.7663 33.2604 38.9615C33.3737 41.0378 33.7632 45.4817 35.2865 49.0812C35.4946 49.5738 35.743 50.0941 36.0825 50.5635C36.4226 51.0334 36.8493 51.4515 37.4254 51.757L37.4256 51.7571C37.5776 51.8397 38.3191 52.2111 39.188 52.2089C39.4916 52.2089 39.8099 52.1652 40.1307 52.0525H40.1305C40.2379 52.0148 40.4287 51.9471 40.632 51.8403C40.8349 51.7344 41.0427 51.5895 41.1784 51.4213C41.2697 51.3086 41.3308 51.1898 41.3569 51.0526C41.366 51.0048 41.3701 50.9573 41.3701 50.9098C41.3707 50.7407 41.3149 50.568 41.2456 50.4283C41.1769 50.2885 41.0988 50.186 41.0719 50.1524L41.0717 50.1522C40.9357 49.9828 40.8114 49.8939 40.6656 49.8136C40.5205 49.7338 40.3472 49.6697 40.1473 49.5672H40.1471C40.1471 49.5672 40.1472 49.5672 40.1473 49.5672C39.8816 49.4303 39.6703 49.2357 39.5124 49.0148C39.3539 48.7937 39.2457 48.5474 39.1695 48.2939C39.0181 47.7865 38.9892 47.2446 38.9846 46.7628C38.9737 45.476 38.8474 42.8051 38.8474 39.2272C38.8474 38.1184 38.8595 36.9219 38.8909 35.6511C38.8958 35.4556 39.0618 35.301 39.2617 35.3058C39.4616 35.3105 39.6198 35.4727 39.6149 35.6682C39.5836 36.9327 39.5716 38.1235 39.5716 39.2272C39.5716 39.4711 39.5723 39.7098 39.5734 39.945C39.7513 39.5019 39.9232 39.0577 40.091 38.6183C40.7703 36.8405 41.6876 34.4387 41.5507 31.1664C41.4924 29.7626 41.2349 25.2362 37.7345 21.3704C37.6917 21.3231 37.6386 21.2652 37.5916 21.2135C37.7276 20.5734 37.933 20.0541 38.1451 19.6455C39.7529 16.5462 43.2459 16.3874 44.5699 12.8242C44.898 11.9415 44.9596 11.222 44.9843 10.8084C45.1491 8.05484 44.0115 5.18791 41.7855 3.49284ZM31.9575 41.7444C31.9028 41.8809 31.7452 41.9483 31.6056 41.8948C31.0934 41.6986 30.554 41.5679 30.0073 41.5076C29.8582 41.4912 29.751 41.3597 29.7679 41.214C29.7847 41.0683 29.9191 40.9636 30.0682 40.98C30.6622 41.0455 31.2473 41.1873 31.8037 41.4004C31.9434 41.4539 32.0122 41.6079 31.9575 41.7444ZM32.0901 40.4162C31.4953 40.4162 30.9009 40.4162 30.3061 40.4162C30.1561 40.4162 30.0345 40.2974 30.0345 40.1508C30.0345 40.0041 30.1561 39.8853 30.3061 39.8853C30.9009 39.8853 31.4953 39.8853 32.0901 39.8853C32.2401 39.8853 32.3617 40.0041 32.3617 40.1508C32.3617 40.2974 32.2401 40.4162 32.0901 40.4162Z" fill="#C33409"/>
</svg>
