<svg width="55" height="55" viewBox="0 0 55 55" fill="none" xmlns="http://www.w3.org/2000/svg">
<path d="M50.7599 11.1018C50.4294 9.88606 49.8003 8.9209 49.5669 8.56829C49.1814 7.98609 48.8934 7.55093 48.3739 7.12064C48.1936 6.97125 46.7122 5.78337 44.7032 6.03482C44.4167 6.07076 42.4828 6.31264 42.2256 7.39196C42.0989 7.92485 42.3923 8.61201 42.8679 8.83961C43.2659 9.03001 43.5542 8.78596 44.1529 8.74929C45.421 8.67144 46.4202 9.62774 46.5386 9.74443C47.6136 10.8026 47.4824 12.4105 47.4564 12.7304C47.1765 16.1608 42.5873 18.6213 39.7334 19.5245C38.514 19.9105 37.3887 20.0806 36.2939 20.1874C33.4206 18.155 29.839 17.1859 26.7178 17.2544C21.6318 17.3658 18.0823 20.2214 15.2474 22.5021C10.8742 26.0204 8.66609 30.2165 7.57513 32.2899C6.73717 33.8821 6.28136 35.1585 5.89407 36.2423C5.45998 37.4569 5.13837 38.3659 4.96696 39.099C4.87637 39.2798 3.86182 41.3572 4.01589 43.3945C4.04154 43.7331 4.11079 44.1904 4.44843 44.4141C4.52538 44.4654 4.81593 44.6366 5.45366 44.4621C5.80632 44.3656 6.25997 44.1631 6.75168 43.9085C7.01504 43.5417 7.19556 43.2079 7.23405 43.134C8.50222 39.7948 9.7702 36.4557 11.0382 33.1161C11.1108 32.9248 11.327 32.8277 11.5211 32.8994C11.7152 32.971 11.8136 33.1842 11.7409 33.3755C10.4704 36.7217 9.19993 40.0675 7.92925 43.4134L7.91348 43.449C7.90314 43.4655 7.47004 44.3322 6.80236 45.0114C6.57794 45.2378 6.3256 45.4459 6.03516 45.5904H6.03514C5.63375 45.7891 5.45048 45.8653 5.44134 45.8691L5.39352 45.8852C5.18974 45.9384 5.01011 45.9716 4.86659 46.0211C4.72179 46.0711 4.61753 46.1274 4.51892 46.2302L4.51862 46.2305C4.44919 46.3042 4.40591 46.3681 4.36482 46.4493C4.32417 46.5301 4.28731 46.631 4.24554 46.7645L4.24542 46.7648C4.20587 46.8893 4.13596 47.1174 4.13582 47.3926C4.13594 47.564 4.16285 47.7494 4.24057 47.939C4.39849 48.3237 4.69157 48.5399 4.8272 48.6346C5.2149 48.9072 5.67142 48.9998 6.11442 49C6.77238 49.0008 7.36408 48.7902 7.49967 48.74H7.49981C8.0555 48.5384 8.42624 48.2569 8.57227 48.1419C10.2929 46.795 11.2667 44.6662 11.3673 44.4264L11.3767 44.4045V44.4046C12.0605 42.7639 13.4957 40.3446 16.8058 36.8809C16.9479 36.7322 17.1854 36.7253 17.3362 36.8654C17.487 37.0055 17.4941 37.2397 17.3519 37.3884C14.0859 40.8064 12.7115 43.1487 12.0708 44.6858L12.0707 44.6859C12.0651 44.6991 11.811 45.3076 11.3083 46.1128C10.805 46.9178 10.0548 47.9214 9.04021 48.7203C9.00761 48.746 8.96192 48.7808 8.90971 48.8192C9.03859 48.8637 9.18071 48.8872 9.33831 48.8876C9.82824 48.8924 10.4155 48.6593 10.7196 48.4599L10.72 48.4597C10.8475 48.377 10.9304 48.3195 11.0973 48.1497C11.2621 47.9806 11.498 47.7024 11.8703 47.222C12.3024 46.6647 12.653 46.2107 12.9181 45.84C13.1834 45.47 13.3619 45.1809 13.4513 44.9726C13.454 44.9664 13.4543 44.9627 13.4568 44.9567C13.6982 44.8925 13.9648 44.8414 14.2634 44.8099C14.3589 44.7998 14.4549 44.79 14.5575 44.7844C15.3916 44.739 15.8149 44.8866 16.2172 44.9197C16.4041 45.6425 16.5909 46.3654 16.7778 47.0882C16.8289 47.2862 17.0332 47.4058 17.234 47.3553C17.4348 47.3049 17.5561 47.1035 17.5049 46.9055C17.3239 46.2051 17.1428 45.5047 16.9618 44.8043C16.9794 44.7974 16.996 44.7921 17.0142 44.7844C17.0872 44.7536 17.1577 44.7197 17.2258 44.6832C17.6458 45.3191 18.0657 45.9551 18.4858 46.5911C18.5989 46.7623 18.8314 46.8107 19.005 46.6992C19.1786 46.5877 19.2277 46.3585 19.1146 46.1873C18.6864 45.5389 18.2581 44.8904 17.8299 44.242C18.4412 43.6671 18.7494 42.9346 18.8244 42.7442C19.3392 41.4404 18.9305 40.423 19.7943 39.6846C19.9474 39.5538 20.0852 39.4786 20.2528 39.3952C20.4161 39.3139 22.845 38.1191 24.6433 37.9634C27.4241 37.7225 28.199 40.0101 31.1731 40.5769C31.5606 40.6508 31.951 40.6871 32.3412 40.6935C33.2032 40.8652 33.5835 40.434 36.1463 40.5014C38.0318 40.5509 39.1651 40.5928 40.4603 41.229C40.4603 41.229 42.3597 42.3284 43.2673 44.2584C43.4142 44.5712 43.5308 44.9824 43.2838 45.2259C43.0196 45.4864 42.5624 45.2136 42.2414 45.4445C41.7801 45.7768 41.8145 47.0449 42.4605 47.7028C43.2669 48.524 44.8755 48.2426 45.8233 47.6016C46.8449 46.9116 47.127 45.7859 47.2992 45.0553C47.7378 43.1919 47.2391 41.5954 47.046 41.0007C46.2029 38.4017 44.2188 33.5278 41.2993 27.3548C41.1422 26.747 40.9522 26.1765 40.7413 25.6601C40.3654 24.7386 39.8829 23.895 39.3179 23.1268C41.5635 22.7662 44.497 21.9174 47.1809 19.8783C49.2213 18.3281 49.9311 16.9913 50.1172 16.621C50.3455 16.1676 51.4894 13.7872 50.7599 11.1018Z" fill="#C33409"/>
</svg>
