<svg width="55" height="55" viewBox="0 0 55 55" fill="none" xmlns="http://www.w3.org/2000/svg">
<path d="M52.3949 43.5708C51.5677 42.7833 50.2435 43.0811 48.9872 43.1698C48.9872 43.1698 47.1763 43.2935 44.6258 42.6534C43.3353 42.6057 41.0831 42.3206 38.7731 40.9238C36.9341 39.8115 35.8064 38.4448 35.1963 37.5729C35.0774 37.4028 35.1213 37.1702 35.2944 37.0533C35.4675 36.9365 35.7043 36.9796 35.8233 37.1497C36.3952 37.9673 37.4524 39.2476 39.172 40.2874C41.1371 41.4766 43.0658 41.8055 44.309 41.8886C44.7596 40.9258 45.1474 39.8167 45.3671 38.5611C45.4506 38.0831 45.5034 37.6233 45.5327 37.185C47.9264 36.9428 49.6852 36.2097 49.8397 35.2157C49.8605 35.0818 49.8542 34.931 49.8041 34.7621C48.2276 33.6805 46.7841 32.9646 45.6846 32.4942C44.4997 31.9874 42.3579 31.0985 39.5052 30.8197C38.964 30.7668 38.9016 30.8022 38.2452 30.7442C38.2452 30.7442 35.9065 30.538 33.7777 29.879C32.0301 29.3382 30.2961 28.357 28.8913 27.4207C26.5023 25.4292 25.1429 24.3106 23.0266 23.598C20.2513 22.6633 16.1482 22.3973 12.6137 24.1386C11.5637 23.2652 9.66229 21.3522 9.0154 18.3361C8.91789 17.8807 8.50893 15.8152 9.25109 13.3114C10.0488 10.6206 12.3042 6.99132 15.6397 6.25075C16.4816 6.06393 17.7733 6.30841 18.4787 5.47607C18.5983 5.33503 19.0051 4.80776 18.873 4.15914C18.7701 3.65248 18.3667 3.2104 17.9267 3.07447C17.6292 2.98252 17.2013 2.99547 16.6855 3.01098C16.6855 3.01098 16.6337 3.01171 16.5869 3.01463C13.4702 3.20657 10.9081 5.32117 10.9081 5.32117C8.5927 7.23197 4.98849 11.8299 5.40544 17.9664C5.69796 22.2723 7.834 25.3559 9.10753 26.8675C6.23453 30.1957 5.18778 35.0956 6.90314 38.2509C8.26081 40.7476 11.2629 41.9981 10.9518 42.5418C10.7256 42.9377 9.15526 42.2437 6.15745 42.4374C5.48884 42.4805 4.99982 42.5516 4.45267 42.7512C4.29202 42.81 1.91435 43.7062 2.00238 45.0538C2.04065 45.6416 2.53914 46.1758 3.06771 46.4145C3.99709 46.8341 4.844 46.2616 6.05085 45.9959C7.39996 45.6986 8.10034 46.0266 10.3125 46.4145C10.3125 46.4145 14.3211 47.1118 18.4171 46.9845C20.0686 46.9331 21.4902 46.7424 22.6056 46.5389C22.9426 46.3433 23.3717 46.0235 23.703 45.5199C24.092 44.9292 24.205 44.3072 24.2056 43.755C24.2055 43.2351 24.1037 42.7899 24.0398 42.5149C23.6584 40.8576 22.4592 39.8849 22.0461 39.5827C21.8779 39.4591 21.8436 39.2249 21.9695 39.0597C22.0954 38.8945 22.3338 38.8608 22.502 38.9844C22.9704 39.3303 24.3319 40.42 24.7815 42.3491C24.8464 42.63 24.9663 43.1418 24.9663 43.755C24.9668 44.406 24.8297 45.1858 24.3416 45.9261C24.2357 46.0865 24.1216 46.2274 24.005 46.3584C25.7711 46.6696 28.3486 46.8734 31.3013 46.205C32.1786 46.0065 32.972 45.7557 33.6848 45.4861C33.3456 45.2923 32.9976 45.0784 32.6433 44.8379C31.076 43.7742 29.9499 42.6002 29.175 41.6376C29.0447 41.4758 29.0726 41.2408 29.2374 41.1128C29.4022 40.9848 29.6414 41.0122 29.7717 41.1741C30.5109 42.0923 31.5837 43.2105 33.0757 44.2231C33.7906 44.7082 34.4819 45.088 35.1128 45.3863C35.1765 45.4164 35.2222 45.4648 35.2587 45.5187C35.5361 45.6401 35.8505 45.7675 36.2022 45.8912C38.169 46.5827 39.6229 46.5867 41.7424 46.6761C46.4903 46.8768 47.218 47.1972 49.6265 46.833C52.149 46.4521 52.7482 45.8898 52.9295 45.368C53.1379 44.768 52.8622 44.0156 52.3949 43.5708ZM40.0195 38.6197V38.6194V38.6195C40.0448 38.268 40.182 37.9903 40.3188 37.7992C40.4553 37.6078 40.596 37.4936 40.642 37.4574C40.8062 37.3287 41.0455 37.3552 41.1765 37.5165C41.3075 37.6779 41.2806 37.913 41.1163 38.0416C41.0999 38.0544 41.02 38.1185 40.9417 38.2281C40.8637 38.338 40.792 38.4841 40.7783 38.6725V38.6728L40.776 38.7347C40.776 38.902 40.8258 39.0421 40.8828 39.1489C40.9401 39.256 41.0006 39.3219 41.0151 39.3373C41.1573 39.4893 41.1471 39.7256 40.9924 39.8653C40.8377 40.0049 40.5971 39.9949 40.4549 39.8429C40.4179 39.8033 40.3088 39.6827 40.2093 39.4964C40.1095 39.31 40.0153 39.0499 40.0153 38.7347C40.0153 38.697 40.0166 38.6586 40.0195 38.6195C40.0195 38.6196 40.0195 38.6196 40.0195 38.6197Z" fill="#C33409"/>
</svg>
