<svg width="55" height="55" viewBox="0 0 55 55" fill="none" xmlns="http://www.w3.org/2000/svg">
<g clip-path="url(#clip0_28886_118)">
<path d="M0.883145 21.1367C2.0169 23.1279 3.82411 23.9271 4.58316 24.2629C6.93111 25.3014 9.21513 25.0603 10.274 24.9487C11.0313 24.8687 11.3668 24.7615 12.9901 24.5621C12.2909 25.9818 11.9601 27.5887 12.0471 29.0886C12.1822 31.4136 13.2943 33.1557 14.2473 34.2922C14.5102 37.5501 15.1476 40.7773 16.1456 43.8896C16.5034 45.0065 16.9204 46.1317 17.6599 47.0415C18.6768 48.2922 20.2877 49.0362 21.8982 48.9986C22.6494 48.9811 23.4504 48.7691 23.9248 48.1863C24.3992 47.603 24.362 46.5866 23.7072 46.2181C23.0674 45.8581 22.5796 45.9658 22.0127 45.6293C20.8614 44.9466 21.1523 42.4506 21.2722 41.5016C21.3565 40.8355 21.5146 39.9539 21.825 38.9092C24.1603 39.4629 26.2947 39.4567 27.5471 39.4522C28.0373 39.4505 35.3311 39.3328 40.2034 35.4663C42.8353 34.9082 45.4132 34.0944 47.8829 33.026C48.5455 32.7394 49.2038 32.4338 49.901 32.247C50.1916 32.1689 50.5024 32.1124 50.7903 32.1998C50.9612 32.2515 51.1142 32.3512 51.284 32.406C51.5691 32.4978 51.8778 32.4572 52.1742 32.4146C52.8636 32.3151 53.5763 32.1998 54.1572 31.8155C54.7384 31.4311 55.1506 30.7 54.9476 30.0331C54.8145 29.5958 54.4544 29.272 54.1101 28.9716C53.9044 28.7923 53.693 28.6093 53.4384 28.5115C52.8652 28.291 52.2311 28.5449 51.6632 28.7782C49.1586 29.8081 46.5138 30.4928 43.8259 30.818C44.4641 29.508 44.839 28.3454 45.0162 27.7945C45.3192 26.8527 45.3916 26.2676 45.3003 25.5851C45.2953 25.5474 45.2857 25.5117 45.2793 25.4745C45.3295 25.4612 45.378 25.4397 45.4199 25.4034C45.9673 24.9285 46.6572 24.6124 47.3743 24.5082C47.5667 24.4801 47.6999 24.3013 47.6719 24.1087C47.6439 23.9161 47.4652 23.7828 47.2728 23.8108C46.469 23.9283 45.7048 24.2672 45.074 24.7781C45.0468 24.7142 45.0196 24.6503 44.9885 24.5882C45.0625 24.5633 45.1305 24.5185 45.1754 24.4472C45.533 23.8802 46.0335 23.4004 46.615 23.0676C46.7838 22.971 46.8423 22.7558 46.7458 22.5868C46.6493 22.4179 46.4342 22.3593 46.2654 22.456C45.6046 22.8345 45.041 23.3721 44.6244 24.0095C43.8986 23.0566 42.7157 22.3696 41.5764 21.8932C41.0961 21.6924 40.604 21.5097 40.1035 21.3629C39.7781 20.22 39.269 19.1294 38.5952 18.1507C38.4792 17.9821 38.3195 17.798 38.116 17.8179C37.9721 17.8322 37.8609 17.9463 37.7671 18.0562C37.4624 18.4125 37.2023 18.7974 36.9704 19.1994C36.9534 19.1378 36.9363 19.0769 36.9198 19.0102C36.8886 18.8827 36.7803 18.5682 36.5123 18.3155C36.3155 18.1298 36.0034 18.0376 35.7691 18.1725C35.5375 18.3058 35.4495 18.5885 35.415 18.7292C34.7205 21.5581 34.2975 23.2893 34.5034 24.1641C34.2825 24.3089 34.039 24.431 33.7824 24.5322C30.1981 20.7191 28.8697 18.8084 28.4866 17.815C28.4601 17.7462 28.1076 16.9372 27.4048 16.0538C26.9754 15.5139 26.4133 15.0509 25.7454 14.8806C25.0884 14.7132 24.2747 14.9186 23.9887 15.5337C23.8072 15.9239 23.8794 16.401 24.1059 16.7669C24.3321 17.1328 24.6941 17.398 25.0819 17.5836C25.3487 17.7113 25.6357 17.8085 25.8643 17.9962C25.8643 17.9962 26.1008 18.1966 26.2813 18.5089C26.512 18.908 27.0208 20.8289 27.6332 23.6224C26.918 23.0959 26.1005 22.4838 24.8608 21.9062C24.5721 21.7715 24.1778 21.5888 23.7116 21.3977C22.747 18.5082 22.1399 15.4991 21.9134 12.461C21.8621 11.7773 21.8346 11.0652 22.098 10.432C22.3551 9.81302 22.8615 9.33869 23.2606 8.80036C23.6601 8.26186 23.964 7.55992 23.7319 6.93093C23.4889 6.2732 22.7085 5.93186 22.0124 6.01135C21.3162 6.09084 20.7019 6.50374 20.1828 6.97446C18.6805 8.33637 17.7658 10.2215 17.0201 12.1078C15.7963 15.203 14.9334 18.4402 14.446 21.733C13.2984 22.0957 11.8849 22.4215 10.3014 22.4833C8.46811 22.5548 6.51136 22.6311 4.82345 21.3772C4.45871 21.1064 3.45043 20.3571 2.99733 19.0204C2.8887 18.6997 2.624 17.9177 2.75704 16.9522C2.85673 16.2317 3.10906 15.9074 3.06265 15.0886C3.03824 14.6569 3.00455 14.1783 2.66113 13.9221C2.28538 13.6421 1.71197 13.7565 1.37577 13.9137C0.18494 14.471 0.0632456 16.46 0.0182151 17.1927C-0.0178765 17.7832 -0.0959128 19.4171 0.883145 21.1367ZM42.0413 25.3759C41.7119 25.5738 41.3313 25.6846 40.9433 25.6849C40.7327 25.685 40.5198 25.6517 40.3146 25.5799C40.1311 25.5157 40.0343 25.3147 40.0985 25.131C40.1627 24.9473 40.3635 24.8505 40.547 24.9147C40.6726 24.9587 40.8065 24.9803 40.9433 24.9803C41.195 24.9806 41.4568 24.9058 41.6784 24.772C41.9006 24.6383 42.0801 24.4486 42.1839 24.2269C42.2666 24.0508 42.4763 23.9751 42.6523 24.0579C42.8282 24.1407 42.9038 24.3505 42.8211 24.5267C42.6504 24.8896 42.3701 25.1778 42.0413 25.3759ZM39.5045 29.6094C40.0031 29.1487 40.5881 28.7835 41.2207 28.5374C41.3566 28.4845 41.5096 28.5519 41.5624 28.688C41.6152 28.824 41.5479 28.9772 41.412 29.03C40.8414 29.2519 40.3121 29.5824 39.8627 29.9978C39.7555 30.0968 39.5885 30.0901 39.4896 29.9828C39.3907 29.8756 39.3974 29.7084 39.5045 29.6094ZM39.0937 28.2965V28.2964C39.6305 27.9439 40.237 27.7004 40.8686 27.5841C41.012 27.5577 41.1497 27.6527 41.176 27.7962C41.2024 27.9398 41.1075 28.0775 40.9641 28.1039C40.4025 28.2072 39.8608 28.4247 39.3834 28.7383C39.2615 28.8184 39.0979 28.7844 39.0179 28.6624C38.9378 28.5404 38.9718 28.3765 39.0937 28.2965Z" fill="#A9DBF1"/>
</g>
<defs>
<clipPath id="clip0_28886_118">
<rect width="55" height="55" fill="white"/>
</clipPath>
</defs>
</svg>
