<svg width="55" height="55" viewBox="0 0 55 55" fill="none" xmlns="http://www.w3.org/2000/svg">
<path d="M38.7255 28.0301C37.15 27.5537 35.5824 26.8849 34.2643 25.8065C32.9451 24.7252 31.8972 23.2067 31.6055 21.4554C31.5621 21.1933 31.5362 20.9226 31.5362 20.6491C31.5362 20.1937 31.6082 19.7278 31.7982 19.2899C31.9534 18.9335 32.1887 18.6116 32.4864 18.3615C32.7836 18.1122 33.1476 17.9341 33.5518 17.8892C33.6186 17.8818 33.6852 17.8782 33.7514 17.8782C34.1272 17.8784 34.4849 17.9929 34.7967 18.1781C35.1088 18.3639 35.3779 18.6209 35.5817 18.9234L35.5815 18.9233C35.9954 19.5405 36.1358 20.2749 36.1364 20.9702L36.1353 21.0755V21.0757C36.1338 21.146 36.1318 21.2122 36.1318 21.2727C36.1316 21.3645 36.1371 21.4428 36.1489 21.4983C36.1609 21.5546 36.1758 21.5845 36.1925 21.6063C36.2493 21.6821 36.3555 21.7259 36.4499 21.7515C36.8416 21.8644 37.4845 21.9895 38.0386 22.0855C38.5943 22.1821 39.0672 22.2518 39.145 22.2632C39.3541 22.2938 39.4994 22.4923 39.4695 22.7065C39.4397 22.9208 39.246 23.0696 39.0369 23.039C38.9552 23.0271 38.4769 22.9565 37.9108 22.8582C37.3432 22.7593 36.6937 22.635 36.2432 22.5061L36.2428 22.5059C36.1237 22.4699 35.8245 22.3875 35.5944 22.0949L35.5941 22.0944C35.4871 21.9568 35.43 21.8024 35.401 21.6622C35.3718 21.521 35.3672 21.3902 35.367 21.2727C35.367 21.1952 35.3693 21.1234 35.3706 21.0591V21.0592L35.3716 20.9702C35.3722 20.3817 35.2477 19.8053 34.9519 19.3682L34.9518 19.3681C34.8134 19.1618 34.6236 18.9809 34.413 18.8561C34.2021 18.7307 33.9733 18.6617 33.7514 18.6619C33.7122 18.6619 33.673 18.6641 33.634 18.6684C33.3989 18.6943 33.1709 18.8004 32.9707 18.9681C32.7709 19.1351 32.6033 19.363 32.497 19.6085C32.3602 19.9231 32.3009 20.2778 32.301 20.6491C32.301 20.8716 32.3223 21.0992 32.3596 21.3243C32.6079 22.8356 33.5378 24.2094 34.7417 25.1942C35.9467 26.1814 37.4199 26.8191 38.9418 27.2784C39.6398 27.4896 40.4051 27.6423 41.1163 27.6418C41.5576 27.642 41.9767 27.5836 42.3491 27.4521C42.7221 27.3201 43.0482 27.1186 43.3232 26.8208C43.7847 26.3217 44.0001 25.6072 44 24.8566C44 24.5444 43.9626 24.2284 43.8927 23.9265C43.8284 23.6484 43.7617 23.3828 43.6561 23.0857L43.6562 23.086C43.4644 22.5505 43.1796 21.9264 42.4859 20.9696C41.9395 20.2182 41.56 19.8366 41.2344 19.4814C40.9093 19.1295 40.6266 18.7776 40.3902 18.1982L40.3901 18.1981C40.1433 17.5994 40.0569 17.0682 40.0207 16.7387C40.0148 16.6849 40.0198 16.6325 40.0339 16.5836C39.8902 15.6753 39.7358 14.7061 39.5701 13.6692C39.6128 13.6832 39.6578 13.6923 39.7052 13.6898C40.4258 13.6517 41.1429 13.5524 41.8474 13.3929C42.0537 13.3462 42.1839 13.1371 42.1383 12.9258C42.0928 12.7144 41.8887 12.581 41.6824 12.6277C41.0193 12.7778 40.3442 12.8713 39.6658 12.9071C39.5874 12.9112 39.5201 12.9449 39.4615 12.9897C39.422 12.7423 39.3818 12.4913 39.3411 12.2365C39.39 12.2435 39.4411 12.2411 39.4918 12.2273C40.1794 12.0414 40.8665 11.8554 41.554 11.6696C41.7582 11.6144 41.8801 11.4 41.8262 11.1908C41.7724 10.9815 41.5632 10.8566 41.3589 10.9118C40.6713 11.0976 39.9841 11.2836 39.2966 11.4696C39.2695 11.4769 39.2482 11.4935 39.2242 11.5061C39.132 10.9297 39.0371 10.3369 38.939 9.72289C38.7956 8.82665 37.8615 2.98047 36.8039 3.00573C36.5589 3.01166 36.2336 3.48619 35.5838 4.43561C35.1006 5.14165 34.745 5.77556 34.4967 6.25869C32.6365 6.24912 30.7763 6.23956 28.9161 6.23018C28.4874 5.78322 27.8327 5.07182 27.0835 4.13176C26.4571 3.34555 26.2205 2.97129 25.9195 3.00171C25.2846 3.066 24.9834 4.86211 24.803 5.8852C24.803 5.88537 24.7161 6.37818 23.5879 11.6676C23.5347 11.6142 23.4708 11.5711 23.3919 11.5569C22.6934 11.4309 22.0083 11.227 21.3529 10.9498C21.1577 10.8672 20.9341 10.9624 20.8535 11.1624C20.7729 11.3625 20.8658 11.5916 21.061 11.6742C21.768 11.9732 22.5062 12.1929 23.2593 12.3287C23.327 12.3409 23.3912 12.3285 23.4516 12.3064C23.4155 12.4751 23.3787 12.6471 23.3408 12.8247C23.3 12.8118 23.2576 12.802 23.2124 12.804C23.0992 12.809 22.9859 12.8115 22.8725 12.8115C22.3388 12.8115 21.8048 12.7563 21.2818 12.6468C21.0749 12.6035 20.8729 12.7403 20.8306 12.9524C20.7884 13.1644 20.9218 13.3714 21.1288 13.4147C21.7023 13.5347 22.2873 13.5952 22.8725 13.5952C22.9733 13.5952 23.0741 13.5922 23.1749 13.5886C22.9673 14.5301 22.7307 15.4442 22.4786 16.3164C22.527 16.4123 22.5399 16.5263 22.4992 16.6351C21.6453 18.917 20.9096 20.1535 20.3694 20.8731V20.873C20.2782 20.9946 20.0977 21.231 19.8832 21.5835C19.6695 21.935 19.4256 22.3979 19.2195 22.9559V22.956C19.114 23.2413 19.0372 23.5175 18.966 23.8251V23.825C18.8961 24.1269 18.8587 24.4428 18.8588 24.7549C18.8587 25.5057 19.0741 26.2204 19.5356 26.7195C19.8105 27.0174 20.1366 27.2189 20.5095 27.3509C20.8818 27.4823 21.3009 27.5407 21.7421 27.5406C22.4534 27.5411 23.2187 27.3883 23.9168 27.1771C25.4389 26.7178 26.9118 26.0802 28.1168 25.0928C29.3207 24.1082 30.2507 22.7344 30.4993 21.2229V21.223C30.5366 20.998 30.558 20.7703 30.5579 20.5477C30.558 20.1763 30.4987 19.8217 30.3619 19.5071C30.2557 19.2617 30.088 19.0338 29.8882 18.8669C29.6879 18.6991 29.4599 18.593 29.2249 18.5672C29.1859 18.5628 29.1468 18.5607 29.1075 18.5607C28.8856 18.5605 28.6568 18.6295 28.4458 18.7549C28.2351 18.8797 28.0452 19.0606 27.9066 19.267C27.6109 19.7039 27.4867 20.2801 27.4874 20.8687L27.4883 20.9579V20.9581C27.4895 21.022 27.4918 21.0933 27.4918 21.1701C27.4916 21.2877 27.4871 21.4186 27.4579 21.5601C27.4289 21.7006 27.3717 21.8553 27.2644 21.9932L27.2643 21.9934C27.0343 22.2863 26.735 22.3687 26.6156 22.4048H26.6154C26.1649 22.5337 25.5154 22.658 24.9478 22.7569C24.3818 22.8552 23.9035 22.9256 23.8219 22.9376C23.6128 22.9682 23.4191 22.8193 23.3892 22.6051C23.3593 22.3908 23.5046 22.1924 23.7137 22.1617C23.7916 22.1504 24.2643 22.0807 24.8201 21.9842C25.3742 21.8882 26.0171 21.7631 26.4088 21.6502C26.5033 21.6246 26.6095 21.5808 26.666 21.5052C26.6829 21.4831 26.6978 21.4531 26.7099 21.3965C26.7218 21.3407 26.7272 21.2622 26.727 21.1701C26.727 21.1099 26.725 21.0441 26.7236 20.9742V20.9744C26.7229 20.9393 26.7225 20.904 26.7225 20.8687C26.7231 20.1736 26.8632 19.4393 27.277 18.8221C27.4809 18.5196 27.75 18.2626 28.0622 18.0769C28.374 17.8916 28.7317 17.7772 29.1075 17.777C29.1737 17.777 29.2403 17.7806 29.3071 17.788C29.7112 17.8329 30.0751 18.0109 30.3724 18.2602C30.6701 18.5101 30.9055 18.832 31.0607 19.1885C31.2507 19.6263 31.3227 20.0923 31.3228 20.5477C31.3227 20.8213 31.2968 21.0919 31.2534 21.3541V21.3542C30.9613 23.1055 29.9134 24.6239 28.5943 25.705C27.2761 26.7836 25.7088 27.4525 24.133 27.9289C23.3864 28.1538 22.5583 28.3238 21.7421 28.3243C21.2362 28.3242 20.7336 28.2585 20.2606 28.0919C19.7883 27.9259 19.3456 27.6555 18.9794 27.2575C18.9776 27.2555 18.9761 27.2532 18.9742 27.2511C17.2993 28.5101 15.9576 29.6772 14.9608 30.603L14.9607 30.6031C14.1388 31.3658 13.5242 31.9904 13.0898 32.5765C12.6551 33.164 12.3972 33.7048 12.2607 34.3452C12.197 34.647 12.1744 34.9097 12.1744 35.1329C12.1753 35.6172 12.2778 35.9103 12.3188 36.0229C12.6769 37.0086 13.6229 37.5071 13.8236 37.6047C14.4176 37.9091 15.3019 38.0871 16.3311 38.2829H16.3316C17.5816 38.5232 18.3324 38.6583 18.8768 38.768C19.4199 38.8773 19.7664 38.9641 20.1724 39.1014H20.1725C20.408 39.181 20.7687 39.3122 21.2008 39.5127C21.3449 39.5795 21.4337 39.7297 21.4249 39.8915C21.424 39.9077 21.4226 39.937 21.4226 39.9794C21.4223 40.1018 21.4355 40.328 21.507 40.568C21.5788 40.8092 21.7042 41.0587 21.9267 41.2622C22.2048 41.5161 22.5531 41.6256 22.9215 41.6266C23.3035 41.6279 23.6968 41.4994 23.9728 41.3117C24.2919 41.0958 24.4801 40.8019 24.5983 40.4697C24.7154 40.1392 24.7514 39.776 24.751 39.4792C24.751 39.1786 24.7158 38.9494 24.7051 38.8854C24.6545 38.5819 24.5637 38.3386 24.431 38.0854C24.2986 37.8329 24.1206 37.5724 23.9065 37.2616C23.2205 36.2638 22.456 35.7532 22.3106 35.6584L22.3105 35.6583C21.7102 35.2655 21.1453 35.0688 20.754 34.965C20.5495 34.9108 20.4266 34.697 20.4796 34.4875C20.5325 34.278 20.7411 34.1521 20.9456 34.2063C21.3912 34.3245 22.0359 34.5487 22.7221 34.9977H22.722L22.7222 34.9978C22.7221 34.9977 22.7221 34.9977 22.7221 34.9977C22.9081 35.1196 23.7639 35.6934 24.5317 36.8102C24.7449 37.1206 24.9409 37.4034 25.1043 37.7134C25.2675 38.0227 25.3947 38.3608 25.4592 38.7545C25.4739 38.8437 25.5158 39.1176 25.5158 39.4792C25.5158 39.4913 25.5147 39.5052 25.5146 39.5175C26.1377 39.7517 26.7413 39.9331 27.2979 40.0801C26.656 42.8565 24.6529 45.1569 21.575 45.8528C19.1268 46.4066 16.6926 45.2053 14.8952 43.4301C14.2646 42.8075 13.412 41.258 12.4253 41.9051C11.6491 42.4141 12.1144 43.5193 12.4195 44.2226C14.627 49.3134 20.7902 50.269 24.8047 47.6017C27.5734 45.7622 29.203 43.4254 29.83 40.6544C30.586 40.8059 31.3866 40.9346 32.2117 40.9672C32.8083 43.7294 32.7456 45.8461 32.4909 47.4203C32.3381 48.3624 31.9176 50.3474 32.9398 51.3535C33.8779 52.2765 35.6063 51.9577 35.9136 51.9011C36.5896 51.7763 37.5008 51.5563 37.9224 50.7695C38.3075 50.0512 38.1073 49.0076 37.3974 48.6303C37.0937 48.4688 36.7005 48.4084 36.5313 48.1038C36.3823 47.8351 36.4555 47.5248 36.4917 47.3786C38.2727 40.2202 39.1668 37.8327 39.1668 37.8323C39.3722 37.349 39.5735 36.8396 39.7662 36.3046C39.878 35.9945 39.9816 35.6888 40.0793 35.387C40.4787 34.4329 40.7727 33.4871 41.0199 32.6673C41.426 31.3202 41.6261 30.2046 41.5687 28.4045C41.4186 28.4173 41.2678 28.4255 41.1164 28.4255C40.3002 28.4251 39.4721 28.2552 38.7255 28.0301ZM33.5465 10.5817C33.6866 10.4197 33.9283 10.4048 34.0864 10.5484C34.4868 10.913 35.0133 11.1422 35.547 11.1842H35.5472C35.5983 11.1883 35.6484 11.1905 35.6968 11.1905C35.843 11.1907 35.9707 11.1693 36.0722 11.1245C36.1352 11.0973 36.1952 11.0544 36.2369 11.0082C36.2792 10.9616 36.3026 10.9149 36.3116 10.8734C36.3578 10.6622 36.5623 10.5294 36.7684 10.5768C36.9745 10.6241 37.1041 10.8337 37.0579 11.0448C37.0146 11.2423 36.9168 11.4104 36.7961 11.5429C36.6747 11.6758 36.5296 11.7763 36.3726 11.8453C36.1439 11.945 35.9114 11.9741 35.6968 11.9743C35.6253 11.9743 35.5554 11.971 35.4875 11.9655H35.4876C34.7837 11.9088 34.1077 11.6145 33.5789 11.1349C33.4209 10.9913 33.4064 10.7436 33.5465 10.5817ZM29.3222 11.1997C28.9274 11.7538 28.3085 12.1117 27.6416 12.1719C27.5778 12.1775 27.5141 12.1803 27.4504 12.1803C26.8485 12.1791 26.2593 11.9386 25.8243 11.5065C25.673 11.3555 25.6697 11.1075 25.817 10.9524C25.9643 10.7973 26.2064 10.7939 26.3578 10.9448C26.6412 11.2292 27.0512 11.3977 27.4504 11.3965C27.4926 11.3965 27.5346 11.3947 27.5764 11.391C28.0138 11.3544 28.4469 11.1039 28.7034 10.7392C28.8275 10.5641 29.0667 10.5252 29.2376 10.6524C29.4084 10.7796 29.4463 11.0246 29.3222 11.1997ZM31.3086 14.0763C31.1318 14.1885 30.9334 14.2414 30.7345 14.2419C30.462 14.2422 30.1665 14.137 29.9655 13.8793C29.8344 13.7096 29.8624 13.4632 30.0281 13.3289C30.1937 13.1946 30.4342 13.2233 30.5653 13.393C30.5874 13.4241 30.6463 13.4579 30.7345 13.4582C30.7959 13.4587 30.861 13.4393 30.9042 13.4111C30.9697 13.3693 31.0286 13.3036 31.0759 13.2136C31.1229 13.1245 31.1554 13.013 31.1669 12.902C31.1875 12.7068 31.346 12.5573 31.5375 12.5524C31.7291 12.5475 31.8947 12.6887 31.9248 12.8826C31.9421 12.9959 31.9789 13.1076 32.0288 13.1969C32.079 13.2869 32.1396 13.3528 32.2066 13.3951L32.2068 13.3952C32.2523 13.4248 32.3202 13.4448 32.383 13.4442C32.47 13.4439 32.5281 13.4119 32.5515 13.3811C32.687 13.2151 32.9282 13.1931 33.0902 13.332C33.2522 13.4708 33.2737 13.718 33.1382 13.884C32.9365 14.1289 32.6486 14.2283 32.383 14.228C32.1822 14.2274 31.9827 14.1739 31.8048 14.062L31.8046 14.0619C31.8047 14.0619 31.8048 14.062 31.8048 14.062C31.7127 14.0037 31.6333 13.9332 31.5627 13.8569C31.4901 13.9392 31.406 14.0141 31.3086 14.0763Z" fill="#C33409"/>
</svg>
