<svg width="55" height="55" viewBox="0 0 55 55" fill="none" xmlns="http://www.w3.org/2000/svg">
<path d="M34.4645 23.3102C33.7731 22.7603 33.0751 22.4156 32.1217 22.3327C32.0175 22.3239 31.915 22.3198 31.8144 22.3198C31.0165 22.3193 30.3279 22.5801 29.8627 22.8094C29.6841 22.8973 29.4668 22.8261 29.3775 22.6505C29.2881 22.4748 29.3605 22.2612 29.5391 22.1733C30.0613 21.9168 30.8559 21.6091 31.8144 21.6086C31.935 21.6086 32.0582 21.6135 32.1835 21.6241C33.2926 21.7151 34.1606 22.1471 34.9209 22.7584C35.6839 23.3699 36.3583 24.153 37.1558 25.002C38.604 26.5458 40.6074 27.3823 42.6285 27.3822C43.8954 27.382 45.168 27.0545 46.3212 26.3655C46.6329 26.1795 47.0781 25.8772 47.5034 25.5147C47.9292 25.153 48.3347 24.7273 48.5752 24.3149C48.7368 24.0399 48.8222 23.7771 48.8214 23.5467C48.8207 23.3876 48.7849 23.2405 48.6963 23.0857V23.0856C48.6213 22.9564 48.5486 22.8897 48.4833 22.8506C48.4175 22.8122 48.3524 22.7955 48.2662 22.7948C48.1516 22.794 48.0005 22.8331 47.8414 22.9082C47.6823 22.9825 47.5172 23.0898 47.3703 23.2039L47.3702 23.204C46.7302 23.6982 46.1201 24.2071 45.268 24.5249C44.5774 24.7816 43.8496 24.9097 43.1237 24.9097C42.1269 24.9097 41.1326 24.6682 40.2427 24.1851C39.4135 23.7346 38.7198 23.1395 38.0671 22.5268C37.4146 21.9134 36.8014 21.2813 36.1427 20.7414C34.6797 19.5411 32.8991 18.9854 30.977 18.7661C30.6694 18.7311 30.3397 18.7071 30.0087 18.7071C29.4811 18.7067 28.9512 18.7692 28.5033 18.9333C28.0538 19.0988 27.6912 19.3533 27.4387 19.7579C27.3346 19.9256 27.1121 19.9785 26.9416 19.8762C26.7711 19.7739 26.7173 19.555 26.8213 19.3874C27.1684 18.8261 27.6896 18.47 28.2517 18.2665C28.8155 18.0614 29.4251 17.9963 30.0086 17.9959C30.375 17.9959 30.7315 18.0222 31.0602 18.0596C33.0667 18.2876 35.0015 18.8787 36.6061 20.1952C36.731 20.2978 36.8509 20.4045 36.9714 20.5108C37.2111 20.1819 37.4813 19.8779 37.8033 19.6164C39.5656 18.1859 42.3931 18.3616 43.8726 16.6493C44.3483 16.099 44.4133 15.8733 44.955 15.4787C46.4517 14.3889 47.8415 14.9708 48.6061 13.9866C48.9737 13.513 49.138 12.7525 48.8614 12.228C48.2201 11.0125 45.3834 11.3987 44.2218 11.5567C43.5671 11.646 42.064 11.8359 40.3949 12.6672C39.6945 13.0159 39.0267 13.4404 38.2805 13.6801C37.411 13.9591 36.4807 13.9728 35.5667 14.0074C32.8046 14.1116 29.9866 14.4459 27.5083 15.6494C26.8757 15.9568 26.1946 16.3824 25.5384 16.8924C23.905 16.7121 22.2732 17.0225 20.782 17.682C18.8927 17.2222 17.3378 17.1539 16.5217 17.2737C17.2086 15.0672 18.2379 13.7653 19.0578 12.9817C20.1514 11.9367 20.9054 11.7823 21.2718 10.7208C21.7032 9.4712 21.0378 8.58577 21.7827 7.45515C22.1342 6.92135 22.4685 6.85763 22.6342 6.28285C22.7881 5.74871 22.7532 4.94316 22.2084 4.44062C21.8353 4.09645 21.2711 3.93843 20.7608 4.02196C19.7458 4.18779 19.4345 5.22812 18.0414 7.18131C17.8607 7.43483 17.0468 8.61512 15.9266 9.7605C14.5672 11.1504 13.3442 11.8545 9.91829 15.2631C8.4793 16.6946 6.92889 18.3972 7.00252 20.4782C7.07245 22.4523 8.60203 24.012 10.1609 25.1151C11.0998 25.7797 12.3063 26.4963 13.6464 27.1498C13.5877 27.4097 13.5328 27.6705 13.4855 27.9324C12.8648 31.3724 12.8858 35.3086 14.3617 38.5426C15.7417 41.5662 18.0917 43.3023 19.7098 44.2452C18.9782 46.8465 17.9946 50.7272 19.3045 51.5562C20.528 52.331 23.9474 51.5145 25.3509 51.4537C26.1823 51.4176 28.1097 51.8184 30.8904 51.9736C31.8217 52.0254 32.8646 52.0646 33.3022 51.4402C33.7511 50.7991 33.2937 49.8409 33.2718 49.7964C32.8911 49.0258 32.0675 48.5903 30.7022 48.2398C29.4131 47.9085 27.1936 47.5383 24.1503 47.988C24.5545 47.3181 24.9086 46.6628 25.2185 46.0286C26.9324 46.1627 28.9095 46.0456 31.5752 45.8904C32.7473 45.8221 33.6809 45.7124 34.4394 45.5741C34.3219 45.4961 34.2037 45.4023 34.0911 45.2832C33.7201 44.8874 33.6188 44.4574 33.5858 44.272C33.5517 44.0785 33.6835 43.8944 33.8803 43.8608C34.0771 43.8272 34.2643 43.9569 34.2985 44.1504C34.3191 44.2692 34.3873 44.5512 34.6224 44.8006C34.9296 45.1309 35.338 45.1924 35.4425 45.2027C35.5187 45.2109 35.5822 45.2466 35.636 45.2926C36.7705 44.9469 37.2865 44.5076 37.617 44.0678C38.3421 44.216 39.0671 44.3643 39.7923 44.5125C39.9878 44.5525 40.1793 44.429 40.2199 44.2367C40.2606 44.0444 40.135 43.8561 39.9395 43.8161C39.2897 43.6833 38.64 43.5505 37.9903 43.4176C38.0294 43.329 38.0714 43.2411 38.1025 43.1508C38.8371 43.1932 39.5716 43.2357 40.3062 43.2781C40.5056 43.2896 40.6768 43.14 40.6885 42.9439C40.7002 42.7478 40.548 42.5796 40.3487 42.5681C39.6553 42.528 38.9619 42.488 38.2685 42.4479C38.3706 41.7874 38.3385 41.1062 38.3024 40.4476C38.2745 39.9405 38.2031 38.6409 37.6031 37.2927C37.8334 36.4217 38.1042 35.7896 38.3451 35.3395C38.4263 35.1878 38.6545 34.5963 39.1115 33.4134C39.31 32.8991 39.4032 32.6449 39.2817 32.4507C39.0341 32.0551 38.0876 32.2128 37.4936 32.325C37.3317 32.3556 37.1537 32.3916 36.9674 32.4307C36.7434 32.4777 36.4993 32.5326 36.2403 32.594C36.2456 32.4523 36.2501 32.3104 36.2501 32.1686C36.2501 31.8267 36.2349 31.4849 36.2045 31.1444V31.1445C36.1986 31.0761 36.1852 31.0028 36.1669 30.9477C36.1568 30.9154 36.1457 30.8935 36.1367 30.8782C36.1192 30.8835 36.0955 30.892 36.0632 30.9052L36.0624 30.9055C34.4738 31.5439 33.0387 32.5496 31.894 33.8075C31.4762 33.897 31.1204 33.9963 30.8074 33.9795C30.625 33.9698 30.4554 33.9235 30.2981 33.8045C29.7288 33.3735 29.7299 32.5049 29.7302 32.1854C29.7323 30.484 30.9769 29.7296 31.8093 28.1753C32.0548 27.7169 32.2275 27.252 32.3497 26.7973C33.4706 26.0609 34.4269 25.0462 35.1226 23.9038C34.9026 23.6889 34.6842 23.4855 34.4645 23.3102ZM30.758 42.9196C30.0195 42.9297 29.2807 42.9397 28.542 42.9498C28.4422 42.9512 28.3601 42.8727 28.3587 42.7745C28.3573 42.6763 28.4371 42.5956 28.537 42.5942C29.2757 42.5842 30.0145 42.5741 30.753 42.564C30.8528 42.5626 30.9349 42.6411 30.9363 42.7393C30.9377 42.8375 30.8578 42.9182 30.758 42.9196ZM36.144 40.8388C35.7808 41.1918 35.287 41.3815 34.7857 41.3825C34.6498 41.3825 34.513 41.3682 34.3783 41.3384L34.3781 41.3383C33.7467 41.1953 33.2233 40.7403 33.0011 40.1419C32.9335 39.9571 33.0309 39.7534 33.2188 39.6868C33.4068 39.6203 33.614 39.7161 33.6816 39.9009C33.8105 40.2611 34.158 40.5631 34.5372 40.6445C34.6179 40.6624 34.7014 40.6712 34.7857 40.6712C35.0977 40.6722 35.419 40.5463 35.6343 40.3342C35.776 40.1958 36.005 40.1965 36.1458 40.3359C36.2865 40.4752 36.2857 40.7004 36.144 40.8388ZM31.0421 41.5841C31.1414 41.5953 31.2125 41.6835 31.2011 41.7811C31.1896 41.8787 31.0999 41.9486 31.0007 41.9373C30.2303 41.8499 29.4665 41.708 28.7169 41.5142C28.6203 41.4892 28.5626 41.392 28.588 41.297C28.6134 41.202 28.7123 41.1453 28.8089 41.1702C29.5419 41.3598 30.289 41.4986 31.0421 41.5841Z" fill="#C33409"/>
</svg>
