<svg width="55" height="55" viewBox="0 0 55 55" fill="none" xmlns="http://www.w3.org/2000/svg">
<path d="M40.768 14.2815C35.7041 7.95115 28.1675 7.06156 24.4803 7.04138C21.5886 6.81043 18.6231 7.55112 16.1886 9.13971C13.1851 11.0997 11.0631 14.26 9.9791 17.6908C8.89521 21.1214 8.79525 24.8106 9.271 28.3782C9.6494 31.2153 10.4287 34.0843 12.1214 36.3754C12.1042 37.8479 12.2592 39.3223 12.604 40.7534C12.8194 41.648 13.2245 42.6506 14.1029 42.9099C14.6972 43.0855 15.3514 42.8461 15.8258 42.4457C16.3004 42.0453 16.6298 41.5023 16.9507 40.9694L17.5526 39.9702C18.4096 40.1416 19.2902 40.1635 20.1601 39.9929C20.5223 39.9218 20.8665 39.85 20.8665 39.85C21.6616 39.6225 22.2043 39.2313 22.4503 39.0472C22.975 38.655 23.383 38.2839 23.7307 37.9463C23.4304 37.3705 23.1304 36.6694 22.9052 35.8447C22.6253 34.8194 22.532 33.8664 22.532 33.0448C22.532 32.4846 22.5759 31.9882 22.6331 31.5679C21.9964 31.6162 21.336 31.6905 20.6685 31.6916C20.0146 31.6915 19.3491 31.6159 18.707 31.3458C18.5076 31.2618 18.4136 31.0313 18.4972 30.8308C18.5807 30.6304 18.81 30.5359 19.0095 30.6199C19.5192 30.8347 20.0733 30.9047 20.6685 30.9046C21.5622 30.9063 22.5339 30.7419 23.5186 30.7402C24.1494 30.7403 24.7912 30.8104 25.4136 31.0567C26.2975 31.4104 26.964 32.0364 27.6266 32.5341C28.2453 33.0037 28.9033 33.3967 29.5961 33.5305H29.5963C29.7553 33.5616 29.9195 33.5777 30.083 33.5777C30.6216 33.5781 31.1369 33.4026 31.4755 33.0573C31.7152 32.8178 31.8618 32.4445 31.86 32.0978C31.8595 31.8298 31.779 31.589 31.6211 31.4104C31.5157 31.2914 31.3869 31.2 31.2275 31.1203C31.0687 31.0409 30.8807 30.9761 30.6749 30.9142C30.2642 30.7879 29.7818 30.6826 29.3325 30.4035C28.7608 30.0426 28.4278 29.5043 28.1523 28.9843C27.8776 28.4607 27.6498 27.9398 27.3476 27.5462C27.0535 27.1607 26.6895 26.8704 26.2639 26.6342C25.8388 26.3984 25.3528 26.22 24.8331 26.0672C23.7936 25.7596 22.6259 25.5623 21.5571 25.1387C20.8456 24.8557 20.1716 24.4644 19.6359 23.8552C19.4927 23.6923 19.5079 23.4437 19.6699 23.2997C19.8319 23.1558 20.0793 23.1711 20.2224 23.334C20.8611 24.0633 21.7964 24.4454 22.8598 24.741C23.9196 25.0384 25.0845 25.2414 26.1303 25.694C26.8262 25.996 27.4754 26.4193 27.9691 27.0676C28.3493 27.5692 28.5863 28.1309 28.8438 28.6154C29.1005 29.1036 29.3671 29.499 29.7473 29.7361C29.9693 29.8765 30.2558 29.9726 30.5739 30.065C30.8914 30.1588 31.2384 30.2482 31.5755 30.4153C31.7995 30.5268 32.0202 30.6768 32.2065 30.8879L32.2066 30.888C32.511 31.233 32.6433 31.6715 32.6429 32.0978C32.6411 32.6525 32.4288 33.2062 32.0311 33.6118C31.5055 34.1417 30.7827 34.3643 30.083 34.3647C29.8686 34.3647 29.6551 34.3437 29.4468 34.303C29.4469 34.303 29.4469 34.303 29.447 34.303H29.4468C28.5678 34.1301 27.816 33.6616 27.1557 33.1628C26.4547 32.6284 25.8314 32.0646 25.1266 31.7889C24.6301 31.5921 24.0928 31.5271 23.5186 31.5272C23.4895 31.5272 23.4589 31.5301 23.4296 31.5304C23.3665 31.9493 23.3149 32.4589 23.3149 33.0447C23.3149 33.8067 23.4013 34.6883 23.6601 35.6364C23.9319 36.6319 24.3222 37.4372 24.6771 38.0387C24.693 38.0658 24.6978 38.0953 24.7068 38.1241C25.2231 38.6518 25.8346 39.2062 26.1195 40.2119C26.2982 40.8437 26.1163 40.8345 26.2975 43.3115C26.3324 43.7876 26.3351 43.9686 26.2239 44.188C25.823 44.9804 24.573 44.5892 23.8075 45.0338C23.046 45.4761 23.055 46.6969 23.6697 47.3295C24.2844 47.9616 25.2632 48.0896 26.1312 47.9478C28.9026 47.4947 30.7429 44.8851 32.1485 42.4419C33.6111 39.8999 34.9632 37.2753 35.868 34.4828C36.4231 32.7701 36.8031 31.0009 37.0076 29.2113C37.1945 28.1111 37.3842 26.4349 37.3803 24.37C37.3742 21.0818 36.862 17.6887 35.4602 14.7545C38.2259 16.5612 39.2879 19.2321 40.153 21.42C40.6396 22.6504 41.757 25.6268 41.2474 29.3762C41.0521 30.8149 40.8105 32.5922 39.6484 34.4663C38.4128 36.4587 36.6727 37.6976 37.1101 38.7874C37.2829 39.219 37.7099 39.4096 37.8127 39.4515C39.2844 40.0536 41.5937 37.7341 42.58 36.4756C43.0185 35.9165 44.8301 33.481 44.9788 28.4385C45.043 26.2557 45.2315 19.8608 40.768 14.2815ZM19.9447 34.5003L19.9449 34.5004C20.2046 34.6455 20.4182 34.8569 20.5738 35.1038C20.7283 35.3509 20.8273 35.6372 20.8281 35.9414C20.8287 36.167 20.7693 36.4035 20.6354 36.6117C20.5184 36.7945 20.2762 36.8473 20.0944 36.7297C19.9126 36.612 19.8601 36.3686 19.9771 36.1858C20.0235 36.1125 20.0446 36.0354 20.0452 35.9414C20.046 35.8167 20 35.6634 19.9117 35.5238C19.8246 35.3841 19.6977 35.2617 19.5661 35.1892C19.2635 35.0196 18.877 34.969 18.4435 34.97C18.2903 34.97 18.1324 34.9758 17.9727 34.9824C17.7567 34.9913 17.5744 34.8225 17.5655 34.6054C17.5566 34.3883 17.7245 34.205 17.9405 34.1961C18.1023 34.1894 18.2709 34.183 18.4435 34.183C18.9274 34.1839 19.4548 34.23 19.9447 34.5003Z" fill="#C33409"/>
</svg>
