<svg width="55" height="55" viewBox="0 0 55 55" fill="none" xmlns="http://www.w3.org/2000/svg">
<g clip-path="url(#clip0_28886_113)">
<path d="M51.768 14.2815C46.7041 7.95115 39.1675 7.06156 35.4803 7.04138C32.5886 6.81043 29.6231 7.55112 27.1886 9.13971C24.1851 11.0997 22.0631 14.26 20.9791 17.6908C19.8952 21.1214 19.7952 24.8106 20.271 28.3782C20.6494 31.2153 21.4287 34.0843 23.1214 36.3754C23.1042 37.8479 23.2592 39.3223 23.604 40.7534C23.8194 41.648 24.2245 42.6506 25.1029 42.9099C25.6972 43.0855 26.3514 42.8461 26.8258 42.4457C27.3004 42.0453 27.6298 41.5023 27.9507 40.9694L28.5526 39.9702C29.4096 40.1416 30.2902 40.1635 31.1601 39.9929C31.5223 39.9218 31.8665 39.85 31.8665 39.85C32.6616 39.6225 33.2043 39.2313 33.4503 39.0472C33.975 38.655 34.383 38.2839 34.7307 37.9463C34.4304 37.3705 34.1304 36.6694 33.9052 35.8447C33.6253 34.8194 33.532 33.8664 33.532 33.0448C33.532 32.4846 33.5759 31.9882 33.6331 31.5679C32.9964 31.6162 32.336 31.6905 31.6685 31.6916C31.0146 31.6915 30.3491 31.6159 29.707 31.3458C29.5076 31.2618 29.4136 31.0313 29.4972 30.8308C29.5807 30.6304 29.81 30.5359 30.0095 30.6199C30.5192 30.8347 31.0733 30.9047 31.6685 30.9046C32.5622 30.9063 33.5339 30.7419 34.5186 30.7402C35.1494 30.7403 35.7912 30.8104 36.4136 31.0567C37.2975 31.4104 37.964 32.0364 38.6266 32.5341C39.2453 33.0037 39.9033 33.3967 40.5961 33.5305H40.5963C40.7553 33.5616 40.9195 33.5777 41.083 33.5777C41.6216 33.5781 42.1369 33.4026 42.4755 33.0573C42.7152 32.8178 42.8618 32.4445 42.86 32.0978C42.8595 31.8298 42.779 31.589 42.6211 31.4104C42.5157 31.2914 42.3869 31.2 42.2275 31.1203C42.0687 31.0409 41.8807 30.9761 41.6749 30.9142C41.2642 30.7879 40.7818 30.6826 40.3325 30.4035C39.7608 30.0426 39.4278 29.5043 39.1523 28.9843C38.8776 28.4607 38.6498 27.9398 38.3476 27.5462C38.0535 27.1607 37.6895 26.8704 37.2639 26.6342C36.8388 26.3984 36.3528 26.22 35.8331 26.0672C34.7936 25.7596 33.6259 25.5623 32.5571 25.1387C31.8456 24.8557 31.1716 24.4644 30.6359 23.8552C30.4927 23.6923 30.5079 23.4437 30.6699 23.2997C30.8319 23.1558 31.0793 23.1711 31.2224 23.334C31.8611 24.0633 32.7964 24.4454 33.8598 24.741C34.9196 25.0384 36.0845 25.2414 37.1303 25.694C37.8262 25.996 38.4754 26.4193 38.9691 27.0676C39.3493 27.5692 39.5863 28.1309 39.8438 28.6154C40.1005 29.1036 40.3671 29.499 40.7473 29.7361C40.9693 29.8765 41.2558 29.9726 41.5739 30.065C41.8914 30.1588 42.2384 30.2482 42.5755 30.4153C42.7995 30.5268 43.0202 30.6768 43.2065 30.8879L43.2066 30.888C43.511 31.233 43.6433 31.6715 43.6429 32.0978C43.6411 32.6525 43.4288 33.2062 43.0311 33.6118C42.5055 34.1417 41.7827 34.3643 41.083 34.3647C40.8686 34.3647 40.6551 34.3437 40.4468 34.303C40.4469 34.303 40.4469 34.303 40.447 34.303H40.4468C39.5678 34.1301 38.816 33.6616 38.1557 33.1628C37.4547 32.6284 36.8314 32.0646 36.1266 31.7889C35.6301 31.5921 35.0928 31.5271 34.5186 31.5272C34.4895 31.5272 34.4589 31.5301 34.4296 31.5304C34.3665 31.9493 34.3149 32.4589 34.3149 33.0447C34.3149 33.8067 34.4013 34.6883 34.6601 35.6364C34.9319 36.6319 35.3222 37.4372 35.6771 38.0387C35.693 38.0658 35.6978 38.0953 35.7068 38.1241C36.2231 38.6518 36.8346 39.2062 37.1195 40.2119C37.2982 40.8437 37.1163 40.8345 37.2975 43.3115C37.3324 43.7876 37.3351 43.9686 37.2239 44.188C36.823 44.9804 35.573 44.5892 34.8075 45.0338C34.046 45.4761 34.055 46.6969 34.6697 47.3295C35.2844 47.9616 36.2632 48.0896 37.1312 47.9478C39.9026 47.4947 41.7429 44.8851 43.1485 42.4419C44.6111 39.8999 45.9632 37.2753 46.868 34.4828C47.4231 32.7701 47.8031 31.0009 48.0076 29.2113C48.1945 28.1111 48.3842 26.4349 48.3803 24.37C48.3742 21.0818 47.862 17.6887 46.4602 14.7545C49.2259 16.5612 50.2879 19.2321 51.153 21.42C51.6396 22.6504 52.757 25.6268 52.2474 29.3762C52.0521 30.8149 51.8105 32.5922 50.6484 34.4663C49.4128 36.4587 47.6727 37.6976 48.1101 38.7874C48.2829 39.219 48.7099 39.4096 48.8127 39.4515C50.2844 40.0536 52.5937 37.7341 53.58 36.4756C54.0185 35.9165 55.8301 33.481 55.9788 28.4385C56.043 26.2557 56.2315 19.8608 51.768 14.2815ZM30.9447 34.5003L30.9449 34.5004C31.2046 34.6455 31.4182 34.8569 31.5738 35.1038C31.7283 35.3509 31.8273 35.6372 31.8281 35.9414C31.8287 36.167 31.7693 36.4035 31.6354 36.6117C31.5184 36.7945 31.2762 36.8473 31.0944 36.7297C30.9126 36.612 30.8601 36.3686 30.9771 36.1858C31.0235 36.1125 31.0446 36.0354 31.0452 35.9414C31.046 35.8167 31 35.6634 30.9117 35.5238C30.8246 35.3841 30.6977 35.2617 30.5661 35.1892C30.2635 35.0196 29.877 34.969 29.4435 34.97C29.2903 34.97 29.1324 34.9758 28.9727 34.9824C28.7567 34.9913 28.5744 34.8225 28.5655 34.6054C28.5566 34.3883 28.7245 34.205 28.9405 34.1961C29.1023 34.1894 29.2709 34.183 29.4435 34.183C29.9274 34.1839 30.4548 34.23 30.9447 34.5003Z" fill="#C33409"/>
</g>
<defs>
<clipPath id="clip0_28886_113">
<rect width="55" height="55" fill="white"/>
</clipPath>
</defs>
</svg>
